<svg width="499" height="647" viewBox="0 0 499 647" fill="none" xmlns="http://www.w3.org/2000/svg">
<g clip-path="url(#clip0)">
<path d="M146.905 242.623L7.87213 212.631L6.06527 212.242C5.14514 212.042 4.1873 212.106 3.30188 212.427C2.41645 212.747 1.63941 213.311 1.06012 214.053C0.48082 214.795 0.122777 215.686 0.0271875 216.623C-0.0684018 217.559 0.102352 218.504 0.519772 219.348L55.7214 331.449C56.0787 332.17 56.6038 332.794 57.2524 333.269C57.9011 333.743 58.6544 334.056 59.4489 334.179C60.2459 334.303 61.0611 334.231 61.824 333.969C62.587 333.708 63.2748 333.264 63.828 332.677L102.17 292.249C102.443 291.954 102.773 291.719 103.141 291.558C103.51 291.397 103.907 291.315 104.309 291.315C104.855 291.307 105.392 291.448 105.864 291.723C106.336 291.997 106.725 292.395 106.988 292.873L114.842 307.399C115.343 308.368 116.154 309.141 117.145 309.595C118.137 310.049 119.252 310.159 120.313 309.906L120.352 309.898C121.426 309.67 122.392 309.088 123.095 308.245C123.798 307.403 124.198 306.348 124.229 305.251L125.802 271.719C125.821 271.3 125.926 270.89 126.109 270.514C126.307 270.142 126.574 269.811 126.898 269.541L149.017 251.383C149.744 250.786 150.289 249.997 150.587 249.105C150.886 248.213 150.928 247.255 150.708 246.341C150.487 245.426 150.013 244.592 149.341 243.935C148.668 243.277 147.824 242.822 146.905 242.623H146.905ZM147.754 249.84L125.634 267.997C125.346 268.229 125.085 268.493 124.856 268.784L7.62085 215.616C7.51745 215.568 7.40958 215.53 7.29879 215.503C6.8466 215.386 6.36789 215.431 5.94546 215.63C5.52303 215.829 5.18343 216.17 4.98541 216.593C4.78739 217.016 4.74339 217.494 4.86102 217.946C4.97865 218.398 5.25052 218.795 5.6296 219.067L102.023 289.875C101.534 290.129 101.092 290.466 100.717 290.87L62.3762 331.298C62.0435 331.648 61.6312 331.913 61.1743 332.07C60.7175 332.226 60.2296 332.27 59.752 332.198C59.2745 332.126 58.8215 331.939 58.4315 331.654C58.0415 331.369 57.726 330.995 57.5118 330.562L2.31021 218.46C2.06343 217.954 1.96387 217.388 2.02288 216.828C2.0819 216.267 2.29711 215.735 2.64401 215.291C2.9909 214.847 3.45553 214.509 3.98495 214.317C4.51437 214.124 5.0873 214.084 5.63845 214.201L7.48822 214.6L146.478 244.581C147.029 244.701 147.536 244.973 147.941 245.367C148.345 245.762 148.63 246.262 148.763 246.81C148.896 247.359 148.872 247.934 148.694 248.47C148.515 249.006 148.19 249.48 147.754 249.84Z" fill="#FF99A9"/>
<path d="M176.541 642.525C164.07 639.157 148.893 625.147 152.142 605.891C153.753 596.341 159.939 590.159 166.352 586.162C175.223 580.633 185.326 578.549 195.062 578.023C206.292 577.416 217.509 578.946 228.655 580.565C239.658 582.164 250.663 583.595 261.715 584.469C304.964 587.861 348.478 584.63 390.752 574.888C401.185 572.48 411.556 569.655 421.865 566.413C431.633 563.538 441.184 559.969 450.443 555.732C462.699 549.848 482.63 538.398 481.005 517.193C480.143 505.95 473.522 496.97 466.843 490.713C458.768 483.149 449.424 478.172 440.271 473.338C397.701 450.857 355.047 428.642 312.435 406.296C302.49 401.081 292.479 396.005 282.827 389.894C273.791 384.171 264.797 377.525 257.524 368.334C251.173 360.307 245.497 349.531 245.697 337.484C245.863 327.494 250.409 319.017 255.977 312.681C269.763 296.995 289.263 290.634 306.888 287.303C328.785 283.164 350.998 283.185 372.909 279.189C390.601 275.962 409.505 269.732 423.893 255.133C429.98 249.195 434.285 241.674 436.322 233.418C438.159 224.771 437.266 215.768 433.766 207.65C429.868 198.341 423.651 190.924 417.114 184.852C409.604 177.973 401.087 172.283 391.858 167.978C372.425 158.718 351.99 153.897 332.084 146.79C322.322 143.305 312.461 139.483 303.397 133.497C295.717 128.425 287.351 121.589 283.078 111.423C274.263 90.4484 295.294 77.9477 307.211 73.2127C315.31 70.1406 323.653 67.7523 332.151 66.0727C333.948 65.6869 333.186 62.1001 331.397 62.4841C322.452 64.2281 313.685 66.788 305.207 70.1317C298.02 73.1174 290.606 77.0412 284.961 83.7932C282.391 86.8418 280.491 90.3967 279.384 94.2273C278.277 98.0578 277.988 102.078 278.536 106.028C280.031 116.092 286.53 123.846 292.634 129.463C300.705 136.891 309.908 141.741 319.239 145.695C329.066 149.86 339.102 153.105 349.134 156.289C369.181 162.65 390.127 168.319 408.224 181.855C420.883 191.324 438.081 209.078 433.87 231.084C432.001 240.852 426.324 248.49 420.199 254.108C413.005 260.51 404.709 265.554 395.715 268.995C355.612 285.134 311.476 273.592 272.407 295.513C259.123 302.966 242.988 316.535 242.858 337.886C242.791 348.977 247.237 359.15 252.733 367.19C259.317 376.82 267.841 383.941 276.515 389.893C285.648 395.931 295.13 401.421 304.914 406.335C315.601 411.949 326.29 417.555 336.982 423.153L401.866 457.179L434.104 474.085C443.943 479.244 454.035 484.194 462.981 491.768C470.306 497.97 478.96 508.144 478.213 520.778C477.619 530.811 470.954 538.052 464.863 542.892C456.977 549.161 448.117 553.215 439.302 556.584C429.135 560.47 418.801 563.694 408.446 566.592C387.236 572.52 365.589 576.757 343.709 579.263C321.884 581.776 299.896 582.596 277.944 581.714C266.853 581.268 255.778 580.381 244.721 579.053C233.324 577.68 221.975 575.565 210.548 574.627C200.212 573.778 189.776 573.975 179.598 576.703C171.099 578.98 162.12 583.04 155.668 590.962C150.913 597.009 148.532 604.586 148.972 612.266C149.409 619.931 152.142 627.287 156.815 633.378C161.562 639.599 168.232 644.076 175.788 646.114C177.569 646.595 178.331 643.009 176.542 642.525L176.541 642.525Z" fill="#E6E6E6"/>
<path d="M498.099 644.224H174.066V646.465H498.099V644.224Z" fill="#3F3D56"/>
<path d="M472.137 538.671C483.828 538.671 493.305 529.193 493.305 517.502C493.305 505.812 483.828 496.334 472.137 496.334C460.446 496.334 450.969 505.812 450.969 517.502C450.969 529.193 460.446 538.671 472.137 538.671Z" fill="#E6E6E6"/>
<path d="M433.518 240.316C445.209 240.316 454.686 230.839 454.686 219.148C454.686 207.458 445.209 197.98 433.518 197.98C421.827 197.98 412.35 207.458 412.35 219.148C412.35 230.839 421.827 240.316 433.518 240.316Z" fill="#E6E6E6"/>
<path d="M385.659 0.885498L326.882 26.4372C324.286 27.5692 322.245 29.6847 321.207 32.3196C320.169 34.9544 320.218 37.8935 321.344 40.492L339.596 82.4755C340.728 85.0714 342.843 87.1123 345.478 88.1505C348.113 89.1886 351.052 89.1392 353.65 88.013L412.427 62.4613C415.023 61.3293 417.064 59.2138 418.102 56.5789C419.141 53.9441 419.091 51.005 417.965 48.4065L399.714 6.42304C398.582 3.8271 396.466 1.78618 393.831 0.748055C391.197 -0.290075 388.257 -0.240644 385.659 0.885498ZM388.093 6.48329C388.444 6.33213 388.813 6.22584 389.191 6.16693L369.319 43.6592L328.505 32.49C328.759 32.3113 329.031 32.1588 329.316 32.035L388.093 6.48329ZM409.994 56.8635L351.217 82.4152C350.103 82.8978 348.844 82.919 347.714 82.4741C346.585 82.0292 345.679 81.1545 345.193 80.042L327.106 38.4355L370.066 50.1919C370.735 50.3749 371.446 50.3246 372.083 50.0493C372.719 49.774 373.243 49.2901 373.568 48.6774L394.367 9.43471L412.367 50.84C412.85 51.9536 412.871 53.2132 412.426 54.3425C411.981 55.4717 411.106 56.3783 409.994 56.8635Z" fill="#E6E6E6"/>
<path d="M319.733 365.057C349.291 365.057 373.252 341.096 373.252 311.538C373.252 281.98 349.291 258.019 319.733 258.019C290.175 258.019 266.214 281.98 266.214 311.538C266.214 341.096 290.175 365.057 319.733 365.057Z" fill="#FF99A9"/>
<path d="M311.3 644.883H296.541C294.817 644.881 293.165 644.196 291.947 642.977C290.728 641.759 290.043 640.106 290.041 638.383V515.37C290.043 513.646 290.728 511.994 291.947 510.776C293.165 509.557 294.817 508.871 296.541 508.87H311.3C313.024 508.871 314.676 509.557 315.894 510.776C317.113 511.994 317.798 513.646 317.8 515.37V638.383C317.798 640.106 317.113 641.759 315.894 642.977C314.676 644.196 313.024 644.881 311.3 644.883Z" fill="#2F2E41"/>
<path d="M340.493 644.883H325.733C324.01 644.881 322.357 644.196 321.139 642.977C319.92 641.759 319.235 640.106 319.233 638.383V515.37C319.235 513.646 319.92 511.994 321.139 510.776C322.357 509.557 324.01 508.871 325.733 508.87H340.493C342.216 508.871 343.868 509.557 345.087 510.776C346.305 511.994 346.991 513.646 346.993 515.37V638.383C346.991 640.106 346.305 641.759 345.087 642.977C343.868 644.196 342.216 644.881 340.493 644.883Z" fill="#2F2E41"/>
<path d="M401.656 502.506C401.007 502.506 400.363 502.408 399.743 502.218C398.926 501.97 398.166 501.562 397.508 501.018C396.849 500.474 396.305 499.806 395.907 499.05L338.242 390.389C337.842 389.635 337.594 388.81 337.513 387.96C337.432 387.11 337.519 386.253 337.769 385.437C338.019 384.621 338.427 383.862 338.971 383.204C339.514 382.546 340.182 382.001 340.936 381.601L353.973 374.682C354.727 374.282 355.553 374.034 356.402 373.952C357.252 373.871 358.11 373.958 358.926 374.208C359.742 374.458 360.501 374.867 361.159 375.411C361.818 375.954 362.362 376.622 362.762 377.376L420.426 486.038C420.827 486.791 421.075 487.617 421.156 488.467C421.237 489.316 421.15 490.174 420.9 490.99C420.65 491.806 420.241 492.565 419.698 493.223C419.154 493.881 418.486 494.426 417.732 494.826L404.695 501.745C403.76 502.244 402.716 502.506 401.656 502.506Z" fill="#FF99A9"/>
<path d="M281.613 402.349C280.833 402.349 280.059 402.208 279.33 401.932H279.329L164.251 358.458C163.453 358.157 162.722 357.7 162.1 357.116C161.478 356.532 160.978 355.83 160.627 355.052C160.276 354.274 160.083 353.435 160.057 352.582C160.031 351.729 160.173 350.879 160.476 350.081L165.682 336.274C166.296 334.663 167.523 333.362 169.095 332.654C170.667 331.946 172.455 331.889 174.068 332.496L289.143 375.96C290.753 376.573 292.054 377.798 292.764 379.367C293.473 380.936 293.533 382.722 292.929 384.335L287.713 398.145C287.242 399.381 286.407 400.445 285.317 401.196C284.228 401.947 282.936 402.349 281.613 402.349Z" fill="#FF99A9"/>
<path d="M352.656 374.355H285.594C282.28 374.355 279.594 377.041 279.594 380.355V522.831C279.594 526.145 282.28 528.831 285.594 528.831H352.656C355.97 528.831 358.656 526.145 358.656 522.831V380.355C358.656 377.041 355.97 374.355 352.656 374.355Z" fill="#2F2E41"/>
<path d="M359.264 259.127C362.409 266.028 365.419 274.368 362.034 281.75C360.792 284.731 358.463 287.13 355.518 288.457C352.029 289.849 348.227 289.055 344.994 287.372C338.188 283.83 333.801 277.249 327.724 272.74C324.958 270.585 321.686 269.175 318.22 268.644C314.227 268.123 310.263 269.065 306.357 269.792C302.204 270.566 297.911 270.974 294.066 268.867C290.684 266.89 288.037 263.866 286.525 260.252C285.734 258.495 283.148 260.018 283.935 261.766C287.204 269.023 293.964 273.968 302.087 273.396C306.385 273.093 310.537 271.706 314.842 271.507C318.77 271.377 322.621 272.608 325.745 274.992C332.417 279.748 336.946 287.052 344.6 290.507C348.211 292.137 352.347 292.816 356.155 291.412C359.439 290.135 362.175 287.752 363.892 284.675C368.915 276.025 365.689 266.027 361.855 257.613C361.055 255.858 358.469 257.381 359.264 259.127Z" fill="#2F2E41"/>
<path d="M325.65 329.408C322.344 329.315 318.229 329.2 315.06 326.884C314.116 326.166 313.341 325.251 312.788 324.202C312.235 323.153 311.918 321.996 311.86 320.812C311.802 319.97 311.941 319.127 312.263 318.347C312.586 317.568 313.085 316.873 313.72 316.319C315.374 314.92 317.791 314.591 320.399 315.358L317.699 295.632L319.681 295.36L322.854 318.55L321.2 317.791C319.283 316.912 316.648 316.463 315.011 317.846C314.609 318.208 314.297 318.657 314.097 319.159C313.897 319.661 313.815 320.202 313.859 320.741C313.907 321.622 314.145 322.483 314.556 323.264C314.967 324.046 315.541 324.729 316.24 325.269C318.707 327.071 321.986 327.304 325.707 327.408L325.65 329.408Z" fill="#2F2E41"/>
<path d="M307.9 297.333H297.128V299.333H307.9V297.333Z" fill="#2F2E41"/>
<path d="M341.9 297.333H331.128V299.333H341.9V297.333Z" fill="#2F2E41"/>
<path d="M279.505 401.465L232.212 387.044C230.737 386.594 229.491 385.593 228.734 384.25C227.977 382.907 227.767 381.323 228.146 379.829L233.667 358.074C233.885 357.215 234.291 356.415 234.855 355.731C235.42 355.047 236.129 354.497 236.931 354.12C237.734 353.743 238.61 353.548 239.496 353.55C240.383 353.552 241.258 353.751 242.059 354.131L288.967 376.428C290.453 376.992 291.656 378.123 292.311 379.571C292.966 381.02 293.02 382.67 292.462 384.158L287.245 397.969C286.681 399.458 285.55 400.662 284.098 401.318C282.647 401.973 280.995 402.026 279.505 401.465Z" fill="#2F2E41"/>
<path d="M339.092 389.158L359.374 434.25C360.007 435.656 361.157 436.765 362.585 437.346C364.013 437.927 365.611 437.936 367.045 437.371L387.928 429.145C388.752 428.82 389.495 428.316 390.102 427.67C390.709 427.024 391.165 426.251 391.438 425.407C391.71 424.564 391.793 423.67 391.679 422.791C391.565 421.912 391.257 421.069 390.778 420.322L362.732 376.608C361.984 375.205 360.711 374.155 359.191 373.688C357.671 373.222 356.028 373.376 354.622 374.118L341.582 381.038C340.176 381.786 339.124 383.061 338.657 384.583C338.19 386.106 338.347 387.751 339.092 389.158Z" fill="#2F2E41"/>
<path d="M146.905 242.623L7.87213 212.631L6.06527 212.242C5.14514 212.042 4.1873 212.106 3.30188 212.427C2.41645 212.747 1.63941 213.311 1.06012 214.053C0.48082 214.795 0.122777 215.686 0.0271875 216.623C-0.0684018 217.559 0.102352 218.504 0.519772 219.348L55.7214 331.449C56.0787 332.17 56.6038 332.794 57.2524 333.269C57.9011 333.743 58.6544 334.056 59.4489 334.179C60.2459 334.303 61.0611 334.231 61.824 333.969C62.587 333.708 63.2748 333.264 63.828 332.677L102.17 292.249C102.443 291.954 102.773 291.719 103.141 291.558C103.51 291.397 103.907 291.315 104.309 291.315C104.855 291.307 105.392 291.448 105.864 291.723C106.336 291.997 106.725 292.395 106.988 292.873L114.842 307.399C115.343 308.368 116.154 309.141 117.145 309.595C118.137 310.049 119.252 310.159 120.313 309.906L120.352 309.898C121.426 309.67 122.392 309.088 123.095 308.245C123.798 307.403 124.198 306.348 124.229 305.251L125.802 271.719C125.821 271.3 125.926 270.89 126.109 270.514C126.307 270.142 126.574 269.811 126.898 269.541L149.017 251.383C149.744 250.786 150.289 249.997 150.587 249.105C150.886 248.213 150.928 247.255 150.708 246.341C150.487 245.426 150.013 244.592 149.341 243.935C148.668 243.277 147.824 242.822 146.905 242.623H146.905ZM147.754 249.84L125.634 267.997C125.346 268.229 125.085 268.493 124.856 268.784C124.649 269.042 124.471 269.322 124.323 269.619C124.169 269.922 124.048 270.24 123.961 270.569L123.963 270.579C123.871 270.922 123.818 271.274 123.805 271.628L122.233 305.16C122.219 305.819 121.982 306.454 121.56 306.961C121.138 307.467 120.556 307.815 119.91 307.947L119.89 307.952C119.254 308.11 118.582 308.048 117.985 307.777C117.388 307.506 116.899 307.041 116.6 306.457L108.744 291.921C108.339 291.173 107.75 290.542 107.033 290.086C106.315 289.629 105.493 289.364 104.644 289.315L104.635 289.317C104.52 289.312 104.407 289.306 104.295 289.311C103.503 289.311 102.723 289.505 102.023 289.875C101.534 290.129 101.092 290.466 100.718 290.87L62.3762 331.298C62.0435 331.648 61.6312 331.913 61.1743 332.07C60.7175 332.226 60.2296 332.27 59.752 332.198C59.2745 332.126 58.8215 331.939 58.4315 331.654C58.0415 331.369 57.726 330.995 57.5119 330.562L2.31021 218.46C2.06343 217.954 1.96387 217.388 2.02288 216.828C2.0819 216.267 2.29711 215.735 2.64401 215.291C2.9909 214.847 3.45553 214.509 3.98495 214.317C4.51437 214.124 5.0873 214.084 5.63845 214.201L7.48822 214.6L146.478 244.581C147.029 244.701 147.536 244.973 147.941 245.367C148.345 245.762 148.63 246.262 148.763 246.81C148.896 247.359 148.872 247.934 148.694 248.47C148.515 249.006 148.19 249.48 147.754 249.84Z" fill="#3F3D56"/>
<path d="M125.299 268.983L124.473 270.804L123.963 270.579L123.961 270.569L6.81864 217.452L104.635 289.317L104.644 289.315L104.903 289.514L103.724 291.127L102.023 289.875L5.62967 219.067C5.25059 218.795 4.97872 218.398 4.86109 217.946C4.74346 217.494 4.78746 217.015 4.98548 216.593C5.1835 216.17 5.5231 215.829 5.94553 215.63C6.36796 215.431 6.84667 215.386 7.29886 215.503C7.40965 215.53 7.51751 215.567 7.62091 215.616L124.856 268.784L125.299 268.983Z" fill="#3F3D56"/>
</g>
<defs>
<clipPath id="clip0">
<rect width="498.099" height="646.465" fill="white"/>
</clipPath>
</defs>
</svg>
